<?xml version="1.0" encoding="UTF-8"?>
<svg id="Layer_2" data-name="Layer 2" xmlns="http://www.w3.org/2000/svg" viewBox="0 0 103.38 24">
  <defs>
    <style>
      .cls-1 {
        fill: #e04826;
        stroke-width: 0px;
      }
    </style>
  </defs>
  <g id="Layer_2-2" data-name="Layer 2">
    <g>
      <g id="Layer_2-2" data-name="Layer 2-2">
        <g id="Layer_1-2" data-name="Layer 1-2">
          <g>
            <path class="cls-1" d="M24,24H0V0h17.93c.48,0,.95.05,1.41.16,1.36.32,2.48,1.02,3.35,2.11.88,1.1,1.31,2.36,1.31,3.77v17.96h0ZM3,3v18h18V7.42c0-.32-.04-.63-.11-.94-.24-1.01-.76-1.84-1.57-2.49s-1.74-.99-2.78-.99H3h0Z"/>
            <path class="cls-1" d="M6.01,6.01h5.99v1.64c.01.7.19,1.37.53,1.99.57,1.03,1.41,1.74,2.52,2.13.36.12.72.21,1.1.22.47.02.95.01,1.42.01h.42v5.99H6.01V6.01Z"/>
          </g>
        </g>
      </g>
      <g>
        <path class="cls-1" d="M30.75,13.85l-.66.8v3.35h-3.08V6.45h3.08v3.89h.03l2.81-3.89h3.91l-4.07,4.94,4.24,6.62h-3.8l-2.45-4.16h0Z"/>
        <path class="cls-1" d="M43.26,9.94c.24.05.46.12.68.22.22.1.41.23.57.4s.31.37.43.62c.12.24.21.53.28.87.06.34.1.72.1,1.14v4.82h-2.91v-4.12c0-.38-.04-.67-.11-.88-.08-.21-.2-.36-.35-.44-.16-.08-.38-.12-.65-.12-.36,0-.64.13-.85.39s-.31.65-.31,1.17v4.01h-2.91V6.03h2.91v4.9h.02c.2-.23.43-.43.68-.58s.51-.27.79-.35c.28-.08.57-.11.87-.11.28,0,.54.02.77.07Z"/>
        <path class="cls-1" d="M54.09,10.04v7.97h-2.92v-.85h-.03c-.27.33-.59.59-.97.76-.37.17-.77.26-1.2.26-1.88,0-2.82-1.16-2.82-3.47v-4.67h2.9v3.97c0,.57.08.98.24,1.23.16.25.43.38.8.38.32,0,.58-.13.78-.39.2-.26.3-.65.3-1.17v-4.01h2.92Z"/>
        <path class="cls-1" d="M61.03,9.94c.23.05.46.12.68.22.22.1.41.23.57.4s.31.37.43.62c.12.24.21.53.28.87.06.34.1.72.1,1.14v4.82h-2.91v-4.12c0-.37-.04-.66-.11-.87s-.19-.36-.33-.44c-.15-.08-.34-.12-.59-.12-.36,0-.64.13-.85.39s-.31.65-.31,1.17v4.01h-2.91v-7.97h2.91v.87h.02c.29-.34.63-.6,1.03-.77s.81-.27,1.24-.27c.28,0,.54.02.78.07Z"/>
        <path class="cls-1" d="M72.21,10.04v6.81c0,.56-.05,1.06-.14,1.51-.09.45-.24.86-.45,1.25-.21.38-.49.71-.82.96-.33.26-.75.46-1.26.61-.51.15-1.09.22-1.74.22s-1.28-.06-1.79-.17-1.01-.3-1.52-.56l.64-2.29c.29.18.65.33,1.08.46.44.13.84.19,1.21.19.61,0,1.09-.12,1.43-.37.34-.24.51-.55.51-.92v-.72h-.02c-.51.56-1.21.83-2.11.83-.69,0-1.31-.17-1.85-.51s-.97-.81-1.27-1.4c-.3-.59-.45-1.25-.45-1.98,0-.58.09-1.13.27-1.64.18-.51.42-.94.72-1.29.3-.36.66-.63,1.09-.84s.87-.31,1.35-.31c.89,0,1.62.32,2.19.95h.02v-.78h2.91ZM69.02,14.89c.27-.26.4-.6.4-1.02s-.13-.75-.41-1.02c-.27-.27-.6-.4-1-.4s-.73.13-1.01.4-.41.61-.41,1.02.14.76.41,1.02c.27.26.61.39,1.01.39s.74-.13,1.01-.39Z"/>
        <path class="cls-1" d="M79.24,9.94c.24.05.46.12.68.22.22.1.41.23.57.4s.31.37.43.62c.12.24.21.53.28.87.06.34.1.72.1,1.14v4.82h-2.91v-4.12c0-.38-.04-.67-.11-.88-.08-.21-.2-.36-.35-.44-.16-.08-.38-.12-.65-.12-.36,0-.64.13-.85.39s-.31.65-.31,1.17v4.01h-2.91V6.03h2.91v4.9h.02c.2-.23.43-.43.68-.58s.51-.27.79-.35c.28-.08.57-.11.87-.11.28,0,.54.02.77.07Z"/>
        <path class="cls-1" d="M82.57,8.68c-.31-.3-.47-.67-.47-1.13,0-.29.07-.55.21-.78.14-.24.34-.42.6-.56.26-.14.54-.21.86-.21.49,0,.89.15,1.2.44s.47.66.47,1.11-.16.83-.47,1.13c-.31.3-.71.44-1.2.44s-.89-.15-1.2-.45ZM82.31,10.04h2.9v7.97h-2.9v-7.97Z"/>
        <path class="cls-1" d="M92.28,9.94c.23.05.46.12.68.22.22.1.41.23.57.4s.31.37.43.62c.12.24.21.53.28.87.06.34.1.72.1,1.14v4.82h-2.91v-4.12c0-.37-.04-.66-.11-.87s-.19-.36-.33-.44c-.15-.08-.34-.12-.59-.12-.36,0-.64.13-.85.39s-.31.65-.31,1.17v4.01h-2.91v-7.97h2.91v.87h.02c.29-.34.63-.6,1.03-.77s.81-.27,1.24-.27c.28,0,.54.02.78.07Z"/>
        <path class="cls-1" d="M101.32,9.94c.24.05.46.12.68.22.22.1.41.23.57.4s.31.37.43.62c.12.24.21.53.28.87.06.34.1.72.1,1.14v4.82h-2.91v-4.12c0-.38-.04-.67-.11-.88-.08-.21-.2-.36-.35-.44-.16-.08-.38-.12-.65-.12-.36,0-.64.13-.85.39s-.31.65-.31,1.17v4.01h-2.91V6.03h2.91v4.9h.02c.2-.23.43-.43.68-.58s.51-.27.79-.35c.28-.08.57-.11.87-.11.28,0,.54.02.77.07Z"/>
      </g>
    </g>
  </g>
</svg>